P3
# sample.ppm
16
16
255
255
0
0

255
0
0

255
0
0

255
0
0

224
0
16

224
0
16

224
0
16

224
0
16

208
0
32

208
0
32

208
0
32

208
0
32

192
0
48

192
0
48

192
0
48

192
0
48


255
0
0

255
0
0

255
0
0

255
0
0

224
0
16

224
0
16

224
0
16

224
0
16

208
0
32

208
0
32

208
0
32

208
0
32

192
0
48

192
0
48

192
0
48

192
0
48


255
0
0

255
0
0

255
0
0

255
0
0

224
0
16

224
0
16

224
0
16

224
0
16

208
0
32

208
0
32

208
0
32

208
0
32

192
0
48

192
0
48

192
0
48

192
0
48


255
0
0

255
0
0

255
0
0

255
0
0

224
0
16

224
0
16

224
0
16

224
0
16

208
0
32

208
0
32

208
0
32

208
0
32

192
0
48

192
0
48

192
0
48

192
0
48


176
0
64

176
0
64

176
0
64

176
0
64

176
0
64

176
0
64

176
0
64

176
0
64

176
0
64

176
0
64

176
0
64

176
0
64

176
0
64

176
0
64

176
0
64

176
0
64


160
0
80

160
0
80

160
0
80

160
0
80

160
0
80

160
0
80

160
0
80

160
0
80

160
0
80

160
0
80

160
0
80

160
0
80

160
0
80

160
0
80

160
0
80

160
0
80


144
0
96

144
0
96

144
0
96

144
0
96

144
0
96

144
0
96

144
0
96

144
0
96

144
0
96

144
0
96

144
0
96

144
0
96

144
0
96

144
0
96

144
0
96

144
0
96


128
0
112

128
0
112

128
0
112

128
0
112

128
0
112

128
0
112

128
0
112

128
0
112

128
0
112

128
0
112

128
0
112

128
0
112

128
0
112

128
0
112

128
0
112

128
0
112


112
0
128

112
0
128

112
0
128

112
0
128

112
0
128

112
0
128

112
0
128

112
0
128

112
0
128

112
0
128

112
0
128

112
0
128

112
0
128

112
0
128

112
0
128

112
0
128


96
0
144

96
0
144

96
0
144

96
0
144

96
0
144

96
0
144

96
0
144

96
0
144

96
0
144

96
0
144

96
0
144

96
0
144

96
0
144

96
0
144

96
0
144

96
0
144


80
0
160

80
0
160

80
0
160

80
0
160

80
0
160

80
0
160

80
0
160

80
0
160

80
0
160

80
0
160

80
0
160

80
0
160

80
0
160

80
0
160

80
0
160

80
0
160


64
0
176

64
0
176

64
0
176

64
0
176

64
0
176

64
0
176

64
0
176

64
0
176

64
0
176

64
0
176

64
0
176

64
0
176

64
0
176

64
0
176

64
0
176

64
0
176


48
0
192

48
0
192

48
0
192

48
0
192

48
0
192

48
0
192

48
0
192

48
0
192

48
0
192

48
0
192

48
0
192

48
0
192

48
0
192

48
0
192

48
0
192

48
0
192


32
0
208

32
0
208

32
0
208

32
0
208

32
0
208

32
0
208

32
0
208

32
0
208

32
0
208

32
0
208

32
0
208

32
0
208

32
0
208

32
0
208

32
0
208

32
0
208


16
0
224

16
0
224

16
0
224

16
0
224

16
0
224

16
0
224

16
0
224

16
0
224

16
0
224

16
0
224

16
0
224

16
0
224

16
0
224

16
0
224

16
0
224

16
0
224


0
0
255

0
0
255

0
0
255

0
0
255

0
0
255

0
0
255

0
0
255

0
0
255

0
0
255

0
0
255

0
0
255

0
0
255

0
0
255

0
0
255

0
0
255

0
0
255
